<svg width="26" height="27" viewBox="0 0 26 27" fill="none" xmlns="http://www.w3.org/2000/svg">
<g filter="url(#filter0_d_0_1143)">
<path fill-rule="evenodd" clip-rule="evenodd" d="M16.5082 12.9388L21.2993 17.7165L20.3599 18.6828L15.5688 13.8917C12.8169 16.175 8.75798 15.8993 6.34014 13.2649C3.92229 10.6305 3.99501 6.56284 6.50547 4.01651C9.01594 1.47018 13.0821 1.33978 15.7506 3.72002C18.4191 6.10025 18.7523 10.1549 16.5082 12.9388ZM7.59265 4.94929C5.52724 7.0147 5.45227 10.3395 7.42249 12.4959C9.5789 14.4662 12.9037 14.3912 14.9691 12.3258C17.0346 10.2604 17.1095 6.93554 15.1393 4.77913C12.9829 2.80891 9.65806 2.88388 7.59265 4.94929Z" fill="#636AF6"/>
</g>
<defs>
<filter id="filter0_d_0_1143" x="0.573608" y="2.01733" width="24.7257" height="24.6655" filterUnits="userSpaceOnUse" color-interpolation-filters="sRGB">
<feFlood flood-opacity="0" result="BackgroundImageFix"/>
<feColorMatrix in="SourceAlpha" type="matrix" values="0 0 0 0 0 0 0 0 0 0 0 0 0 0 0 0 0 0 127 0" result="hardAlpha"/>
<feOffset dy="4"/>
<feGaussianBlur stdDeviation="2"/>
<feComposite in2="hardAlpha" operator="out"/>
<feColorMatrix type="matrix" values="0 0 0 0 0 0 0 0 0 0 0 0 0 0 0 0 0 0 0.25 0"/>
<feBlend mode="normal" in2="BackgroundImageFix" result="effect1_dropShadow_0_1143"/>
<feBlend mode="normal" in="SourceGraphic" in2="effect1_dropShadow_0_1143" result="shape"/>
</filter>
</defs>
</svg>
